<?xml version="1.0" encoding="utf-8"?>
<!-- Generator: Adobe Illustrator 26.0.1, SVG Export Plug-In . SVG Version: 6.00 Build 0)  -->
<svg version="1.1" id="Layer_1" xmlns="http://www.w3.org/2000/svg" xmlns:xlink="http://www.w3.org/1999/xlink" x="0px" y="0px"
	 viewBox="0 0 157.6 162" style="enable-background:new 0 0 157.6 162;" xml:space="preserve" fill="#5A49D5">
<g>
	<g>
		<g>
			<path d="M76.1,145.9c0-0.5-0.4-1-1-1H51.7c-0.5,0-1,0.4-1,1c0,0.5,0.4,1,1,1h23.4C75.7,146.9,76.1,146.4,76.1,145.9z"/>
		</g>
		<g>
			<path d="M83.7,145.9c0-0.5-0.4-1-1-1h-3.9c-0.5,0-1,0.4-1,1c0,0.5,0.4,1,1,1h3.9C83.3,146.9,83.7,146.4,83.7,145.9z"/>
		</g>
		<g>
			<path d="M86.1,146.9h2.6c0.5,0,1-0.4,1-1c0-0.5-0.4-1-1-1h-2.6c-0.5,0-1,0.4-1,1C85.1,146.4,85.5,146.9,86.1,146.9z"/>
		</g>
		<g>
			<path d="M81.6,149.7c-0.5,0-1,0.4-1,1c0,0.5,0.4,1,1,1H105c0.5,0,1-0.4,1-1C106,149.3,106.5,149.7,81.6,149.7z"/>
		</g>
		<g>
			<path d="M77.8,149.7h-3.9c-0.5,0-1,0.4-1,1c0,0.5,0.4,1,1,1h3.9c0.5,0,1-0.4,1-1S78.3,149.7,77.8,149.7z"/>
		</g>
		<g>
			<path d="M70.6,149.7H68c-0.5,0-1,0.4-1,1c0,0.5,0.4,1,1,1h2.6c0.5,0,1-0.4,1-1S71.2,149.7,70.6,149.7z"/>
		</g>
		<g>
			<path d="M35.7,131h10.6c0.5,0,1-0.4,1-1c0-0.5-0.4-1-1-1H35.7c-0.5,0-1,0.4-1,1C34.7,130.5,35.2,131,35.7,131z"/>
		</g>
		<g>
			<path d="M50.6,131h10.6c0.5,0,1-0.4,1-1c0-0.5-0.4-1-1-1H50.6c-0.5,0-1,0.4-1,1C49.7,130.5,50.1,131,50.6,131z"/>
		</g>
		<g>
			<path d="M65.6,131h10.6c0.5,0,1-0.4,1-1c0-0.5-0.4-1-1-1H65.6c-0.5,0-1,0.4-1,1C64.6,130.5,65,131,65.6,131z"/>
		</g>
		<g>
			<path d="M80.5,131h27c0.5,0,1-0.4,1-1c0-0.5-0.4-1-1-1h-27c-0.5,0-1,0.4-1,1C79.5,130.5,79.9,131,80.5,131z"/>
		</g>
		<g>
			<path d="M37,45.5c-1.6,0-3,1.3-3,3c0,1.6,1.3,3,3,3c1.6,0,3-1.3,3-3C39.9,46.9,38.6,45.5,37,45.5z M37,49.5c-0.6,0-1-0.5-1-1
				c0-0.6,0.5-1,1-1c0.6,0,1,0.5,1,1C38,49.1,37.5,49.5,37,49.5z"/>
		</g>
		<g>
			<path d="M22.6,65c1.6,0,3-1.3,3-3c0-1.6-1.3-3-3-3c-1.6,0-3,1.3-3,3C19.7,63.6,21,65,22.6,65z M22.6,61c0.6,0,1,0.5,1,1
				s-0.5,1-1,1c-0.6,0-1-0.5-1-1S22.1,61,22.6,61z"/>
		</g>
		<g>
			<path d="M44.8,45.5c-1.6,0-3,1.3-3,3c0,1.6,1.3,3,3,3c1.6,0,3-1.3,3-3C47.7,46.9,46.4,45.5,44.8,45.5z M44.8,49.5
				c-0.6,0-1-0.5-1-1c0-0.6,0.5-1,1-1c0.6,0,1,0.5,1,1C45.8,49.1,45.3,49.5,44.8,49.5z"/>
		</g>
		<g>
			<path d="M52.6,45.5c-1.6,0-3,1.3-3,3c0,1.6,1.3,3,3,3c1.6,0,3-1.3,3-3C55.5,46.9,54.2,45.5,52.6,45.5z M52.6,49.5
				c-0.6,0-1-0.5-1-1c0-0.6,0.5-1,1-1c0.6,0,1,0.5,1,1C53.6,49.1,53.1,49.5,52.6,49.5z"/>
		</g>
		<g>
			<path d="M46.2,59.8h-9.9c-0.5,0-1,0.4-1,1c0,0.5,0.4,1,1,1h9.9c0.5,0,1-0.4,1-1C47.2,60.3,46.7,59.8,46.2,59.8z"/>
		</g>
		<g>
			<path d="M50.3,61.8h4.5c0.5,0,1-0.4,1-1c0-0.5-0.4-1-1-1h-4.5c-0.5,0-1,0.4-1,1C49.4,61.3,49.8,61.8,50.3,61.8z"/>
		</g>
		<g>
			<path d="M46.2,64.1h-9.9c-0.5,0-1,0.4-1,1c0,0.5,0.4,1,1,1h9.9c0.5,0,1-0.4,1-1S46.7,64.1,46.2,64.1z"/>
		</g>
		<g>
			<path d="M50.3,66h4.5c0.5,0,1-0.4,1-1c0-0.5-0.4-1-1-1h-4.5c-0.5,0-1,0.4-1,1C49.4,65.6,49.8,66,50.3,66z"/>
		</g>
		<g>
			<path d="M50.3,72.4h37c0.5,0,1-0.4,1-1c0-0.5-0.4-1-1-1h-37c-0.5,0-1,0.4-1,1C49.4,71.9,49.8,72.4,50.3,72.4z"/>
		</g>
		<g>
			<path d="M90.3,71.4c0,0.5,0.4,1,1,1h14.5c0.5,0,1-0.4,1-1c0-0.5-0.4-1-1-1H91.3C90.7,70.4,90.3,70.8,90.3,71.4z"/>
		</g>
		<g>
			<path d="M49.4,77.7c0,0.5,0.4,1,1,1h71.8c0.5,0,1-0.4,1-1c0-0.5-0.4-1-1-1H50.3C49.8,76.8,49.4,77.2,49.4,77.7z"/>
		</g>
		<g>
			<path d="M50.3,85.1h10.6c0.5,0,1-0.4,1-1c0-0.5-0.4-1-1-1H50.3c-0.5,0-1,0.4-1,1C49.4,84.6,49.8,85.1,50.3,85.1z"/>
		</g>
		<g>
			<path d="M75.9,85.1c0.5,0,1-0.4,1-1c0-0.5-0.4-1-1-1H65.3c-0.5,0-1,0.4-1,1c0,0.5,0.4,1,1,1H75.9z"/>
		</g>
		<g>
			<path d="M90.8,83.1H80.2c-0.5,0-1,0.4-1,1c0,0.5,0.4,1,1,1h10.6c0.5,0,1-0.4,1-1C91.8,83.6,91.3,83.1,90.8,83.1z"/>
		</g>
		<g>
			<path d="M122.1,83.1h-27c-0.5,0-1,0.4-1,1c0,0.5,0.4,1,1,1h27c0.5,0,1-0.4,1-1C123.1,83.6,122.7,83.1,122.1,83.1z"/>
		</g>
		<g>
			<path d="M46.2,92.2h-9.9c-0.5,0-1,0.4-1,1c0,0.5,0.4,1,1,1h9.9c0.5,0,1-0.4,1-1C47.2,92.7,46.7,92.2,46.2,92.2z"/>
		</g>
		<g>
			<path d="M50.3,94.2h4.5c0.5,0,1-0.4,1-1c0-0.5-0.4-1-1-1h-4.5c-0.5,0-1,0.4-1,1C49.4,93.7,49.8,94.2,50.3,94.2z"/>
		</g>
		<g>
			<path d="M46.2,96.4h-9.9c-0.5,0-1,0.4-1,1c0,0.5,0.4,1,1,1h9.9c0.5,0,1-0.4,1-1C47.2,96.9,46.7,96.4,46.2,96.4z"/>
		</g>
		<g>
			<path d="M50.3,98.4h4.5c0.5,0,1-0.4,1-1c0-0.5-0.4-1-1-1h-4.5c-0.5,0-1,0.4-1,1C49.4,97.9,49.8,98.4,50.3,98.4z"/>
		</g>
		<g>
			<path d="M50.3,104.7h37c0.5,0,1-0.4,1-1c0-0.5-0.4-1-1-1h-37c-0.5,0-1,0.4-1,1C49.4,104.3,49.8,104.7,50.3,104.7z"/>
		</g>
		<g>
			<path d="M90.3,103.8c0,0.5,0.4,1,1,1h14.5c0.5,0,1-0.4,1-1c0-0.5-0.4-1-1-1H91.3C90.7,102.8,90.3,103.2,90.3,103.8z"/>
		</g>
		<g>
			<path d="M122.1,102.8h-12.2c-0.5,0-1,0.4-1,1c0,0.5,0.4,1,1,1h12.2c0.5,0,1-0.4,1-1S122.7,102.8,122.1,102.8z"/>
		</g>
		<g>
			<path d="M122.1,109.2H50.3c-0.5,0-1,0.4-1,1c0,0.5,0.4,1,1,1h71.8c0.5,0,1-0.4,1-1S122.7,109.2,122.1,109.2z"/>
		</g>
		<g>
			<path d="M60.9,115.5H50.3c-0.5,0-1,0.4-1,1c0,0.5,0.4,1,1,1h10.6c0.5,0,1-0.4,1-1S61.5,115.5,60.9,115.5z"/>
		</g>
		<g>
			<path d="M75.9,115.5H65.3c-0.5,0-1,0.4-1,1c0,0.5,0.4,1,1,1h10.6c0.5,0,1-0.4,1-1C76.8,115.9,76.4,115.5,75.9,115.5z"/>
		</g>
		<g>
			<path d="M90.8,115.5H80.2c-0.5,0-1,0.4-1,1c0,0.5,0.4,1,1,1h10.6c0.5,0,1-0.4,1-1S91.3,115.5,90.8,115.5z"/>
		</g>
		<g>
			<path d="M122.1,115.5h-27c-0.5,0-1,0.4-1,1c0,0.5,0.4,1,1,1h27c0.5,0,1-0.4,1-1S122.7,115.5,122.1,115.5z"/>
		</g>
		<g>
			<path d="M129,36.5c-6.2,0-11.2,5-11.2,11.2s5,11.2,11.2,11.2s11.2-5,11.2-11.2S135.2,36.5,129,36.5z M129,57
				c-5.1,0-9.2-4.1-9.2-9.2s4.1-9.2,9.2-9.2c5.1,0,9.2,4.1,9.2,9.2C138.3,52.8,134.1,57,129,57z"/>
		</g>
		<g>
			<path d="M155.3,59.6l2.3-7.8c0.1-0.4,0-0.8-0.4-1.1l-4.4-3.1c0-1.6-0.2-3.3-0.6-4.9l3.6-4c0.3-0.3,0.3-0.8,0.1-1.1l-3.9-7.2
				c-0.2-0.4-0.6-0.6-1-0.5l-5.3,0.9c-1.2-1.2-2.5-2.2-3.9-3.1l-0.3-5.4c0-0.4-0.3-0.8-0.7-0.9l-7.8-2.3c-0.4-0.1-0.8,0-1.1,0.4
				l-3,4.3C117.3,14,103.3,7.9,88.4,5.9C85.2,2.3,80.6,0,75.4,0c-5.7,0-10.8,2.8-13.9,7.1c-17.1,3.8-32.7,13.3-43.8,27
				C6.3,48.1,0,65.7,0,83.7c0,15,4.3,29.6,12.3,42.2v8.3c0,3.2,2.6,5.8,5.8,5.8h5.8c14.4,14,33.4,21.8,53.4,22c0.3,0,0.7,0,1,0l0,0
				l0,0l0,0c43.1,0,78.4-35.1,78.4-78.4c0-8-1.2-15.9-3.6-23.4l1.3-0.1C154.8,60.3,155.2,60,155.3,59.6z M75.4,2
				c8.5,0,15.4,6.9,15.4,15.4s-6.9,15.4-15.4,15.4S60,25.9,60,17.4S66.9,2,75.4,2z M1.9,83.7c0-35,24.3-65.9,58.1-74.2
				c-1.2,2.4-1.9,5.1-1.9,7.9c0,9.6,7.8,17.3,17.3,17.3c9.6,0,17.3-7.8,17.3-17.3c0-3.4-1-6.6-2.7-9.3c13.3,2,25.7,7.5,36.2,15.9
				c-0.8,0.1-1.5,0.2-2.3,0.4l-4-3.6c-0.3-0.3-0.8-0.3-1.1-0.1l-7.2,3.9c-0.4,0.2-0.6,0.6-0.5,1l0.9,5.3c-1.2,1.2-2.2,2.5-3.1,3.9
				l-5.4,0.3c-0.4,0-0.8,0.3-0.9,0.7l-1.8,6.3h-68c-3.2,0-5.8,2.6-5.8,5.8v5.9v1.8h-8.9c-3.2,0-5.8,2.6-5.8,5.8v5.9v54.8
				C5.5,110.6,1.9,97.3,1.9,83.7z M102,57.9l3.9,7.2c0.2,0.4,0.6,0.6,1,0.5l5.4-1c1.2,1.2,2.5,2.2,3.9,3.1l0.1,2.7h-6.4
				c-0.5,0-1,0.4-1,1c0,0.5,0.4,1,1,1h6.5v0.8c0,0.4,0.3,0.8,0.7,0.9l7.8,2.3c0.1,0,0.2,0,0.3,0c0.3,0,0.6-0.1,0.8-0.4l3.1-4.4
				c0.1,0,0.3,0,0.4,0v49.3c0,2.1-1.7,3.9-3.9,3.9h-9.8h-83c-2.1,0-3.9-1.7-3.9-3.9V67.4V56.6l0,0v-1.8h75l-1.8,2
				C101.9,57.1,101.8,57.6,102,57.9z M27,66.4H14.3v-4.9c0-2.1,1.7-3.9,3.9-3.9h8.9L27,66.4L27,66.4z M105.3,47.9
				c0,0.6,0,1.1,0.1,1.7H60.7c-0.6,0-1-0.5-1-1c0-0.6,0.5-1,1-1h44L105.3,47.9z M60.7,45.5c-1.6,0-3,1.3-3,3s1.3,3,3,3h44.9
				c0.1,0.4,0.2,0.9,0.3,1.3l-0.1,0.1H28.9V48c0-2.1,1.7-3.9,3.9-3.9h67.6c0,0.3,0.2,0.5,0.4,0.7l1.1,0.8L60.7,45.5L60.7,45.5z
				 M14.3,134.2V68.3H27v5h-5.3c-0.5,0-1,0.4-1,1c0,0.5,0.4,1,1,1H27v2.3h-5.3c-0.5,0-1,0.4-1,1c0,0.5,0.4,1,1,1H27v26.2h-5.3
				c-0.5,0-1,0.4-1,1c0,0.5,0.4,1,1,1H27v2.3h-5.3c-0.5,0-1,0.4-1,1c0,0.5,0.4,1,1,1H27v8.9c0,3.2,2.6,5.8,5.8,5.8h82.1v7.7
				c0,2.1-1.7,3.9-3.9,3.9c-10.1,0-82.8,0-92.9,0C16,138.1,14.3,136.4,14.3,134.2z M78.4,160.2L78.4,160.2c-19.6,0-38-7.5-51.7-20.1
				H111h19C116,152.9,97.6,160.2,78.4,160.2z M154.8,83.7c0,21.3-8.7,40.5-22.8,54.4h-16.7c0.9-1,1.5-2.4,1.5-3.9v-7.7h8.9
				c3.2,0,5.8-2.6,5.8-5.8V71.3c0.9-0.1,1.7-0.2,2.6-0.4l4,3.6c0.3,0.3,0.8,0.3,1.1,0.1l7.2-3.9c0.4-0.2,0.6-0.6,0.5-1l-0.9-5.3
				c1.2-1.2,2.2-2.5,3.1-3.9l2.2-0.1C153.6,67.9,154.8,75.7,154.8,83.7z M148.4,58.6c-0.3,0-0.6,0.2-0.8,0.5c-1,1.6-2.1,3-3.4,4.3
				c-0.2,0.2-0.3,0.5-0.3,0.9l0.9,5.2l-5.9,3.3l-3.9-3.5c-0.2-0.2-0.6-0.3-0.9-0.2c-1.7,0.4-3.4,0.6-5.1,0.6h-0.3
				c-0.3,0-0.6,0.1-0.8,0.4l-3,4.3l-6.5-1.9v-1l0,0l0,0l-0.2-4.2c0-0.3-0.2-0.6-0.5-0.8c-1.6-1-3-2.1-4.3-3.4
				c-0.2-0.2-0.5-0.3-0.9-0.3l-5.2,0.9l-3.3-5.9l3.5-3.9c0.2-0.2,0.3-0.6,0.2-0.9c-0.4-1.8-0.6-3.6-0.6-5.5c0-0.3-0.2-0.6-0.4-0.8
				l-4.3-3l1.9-6.5l5.2-0.2c0.3,0,0.6-0.2,0.8-0.5c1-1.6,2.1-3,3.4-4.3c0.2-0.2,0.3-0.5,0.3-0.9l-0.9-5.2l5.9-3.3l3.9,3.5
				c0.2,0.2,0.6,0.3,0.9,0.2c1.7-0.4,3.4-0.6,5.1-0.6h0.3c0.3,0,0.6-0.1,0.8-0.4l3-4.3l6.5,1.9l0.2,5.2c0,0.3,0.2,0.6,0.5,0.8
				c1.6,1,3,2.1,4.3,3.4c0.2,0.2,0.5,0.3,0.9,0.3l5.2-0.9l3.3,5.9l-3.5,3.9c-0.2,0.2-0.3,0.6-0.2,0.9c0.4,1.8,0.6,3.6,0.6,5.5
				c0,0.3,0.2,0.6,0.4,0.8l4.3,3l-1.9,6.5L148.4,58.6z"/>
		</g>
	</g>
</g>
</svg>
