<?xml version="1.0" encoding="utf-8"?>
<!-- Generator: Adobe Illustrator 26.0.1, SVG Export Plug-In . SVG Version: 6.00 Build 0)  -->
<svg version="1.1" id="Layer_1" xmlns="http://www.w3.org/2000/svg" xmlns:xlink="http://www.w3.org/1999/xlink" x="0px" y="0px"
	 viewBox="0 0 86.8 76.1" style="enable-background:new 0 0 86.8 76.1;" xml:space="preserve">
<style type="text/css">
	.st0{fill:#5A49D5;}
</style>
<path class="st0" d="M84.2,18.7v-4.6c0-1.2-0.7-2.3-1.8-2.8l-2.1-8.9c-0.2-0.8-0.7-1.5-1.4-2s-1.6-0.6-2.4-0.4L35,10
	c-0.8,0.2-1.5,0.7-2,1.4c-0.4,0.7-0.6,1.6-0.4,2.4l1.5,6.1c-0.5,0-1,0.1-1.5,0.1c-1.5,0.2-2.7,0.3-3.2,0.3c-1.6,0-3.8,2.3-7.9,6.6
	c-2.6,2.7-5.5,5.8-8.4,8.2c-5.9,4.8-4,10.8-3.2,12.6l-4.2,4l-1-1.1L0,54.7l18.9,21.4l4.7-4.1l-1.9-2.1l3.1-3.4
	c1.9,0.1,10.8,0.2,15-2.9L39.4,63c2.1,0.2,4.5,0.3,6.6,0.3c0.3,0,0.7,0,1,0c1.4,0,2.5-0.5,3.3-1.5c1.3-1.6,1.1-4.2,0.9-5.4
	c2.5-1.1,2.7-3.6,2.8-5.2c0-0.3,0-0.5,0.1-0.7c0-0.3-0.1-0.6-0.3-0.8c-0.1-0.1-0.2-0.1-0.3-0.2c1-0.7,2.2-1.9,2.5-3.2
	c0.1-0.4,0.1-0.8,0-1.2H81c1.7,0,3.2-1.4,3.2-3.2v-8.6l0.2-0.1c1.7-0.4,2.7-2.1,2.3-3.8L84.2,18.7z M34.3,12.2
	c0.2-0.4,0.6-0.6,1-0.7l41.5-9.9c0.4-0.1,0.9,0,1.2,0.2c0.4,0.2,0.6,0.6,0.7,1l2,8.2H38.4c-1.7,0-3.2,1.4-3.2,3.2V18l-1.1-4.6
	C34,13,34.1,12.6,34.3,12.2z M35.2,19.7L35.2,19.7c-0.2,0.1-0.3,0.1-0.5,0.1L35.2,19.7z M19,74L2.1,54.8l2.4-2.1l16.9,19.1L19,74z
	 M24.5,64.9l-0.4,0l-3.4,3.8l-14-15.9l5.1-4.8l-0.3-0.5c-0.1-0.3-3.4-6.3,2.6-11.3c3-2.4,5.9-5.6,8.5-8.3c2.7-2.9,5.8-6.1,6.8-6.1
	c0.5,0,1.7-0.1,3.3-0.3c12.9-1.3,16-0.7,16.3,0c0,0,0,0.1-0.1,0.3c-2.8,4.1-10.8,9.7-14.5,9.3c-0.7-0.1-1.6-0.1-2.3,0.5
	c-0.7,0.7-0.6,1.7-0.6,2.9c0.1,1.7,0.2,4.1-1.3,6.9l1.3,0.7c1.8-3.2,1.6-5.9,1.5-7.8c0-0.7-0.1-1.6,0.1-1.8c0,0,0.3-0.2,1.1-0.1
	c0.3,0,0.7,0,1,0v9.3c0,1.4,1,2.6,2.3,3c-0.3,0.5-0.5,1-0.5,1.5c0,1,0.5,1.9,1,2.5c-1.3,0.7-3.2,2.5-2.6,6.8l0.5-0.1
	c-1.9,1-3.1,3.3-3.2,4.8c-0.1,1.3,0.6,1.6,0.8,1.8c0.6,0.2,2.3,0.4,4.4,0.7C33.4,65.3,24.6,64.9,24.5,64.9z M49,60.9
	c-0.5,0.6-1.2,0.9-2.1,0.9c-4.7,0.1-11.4-0.6-12.7-0.9c0-0.3,0.1-1,0.5-1.9c0.3-0.6,1.2-2.1,2.8-2.4c0.9-0.2,2.5-0.3,4.6-0.3
	c2.9,0,6.2,0.2,7.5,0.2C49.8,57.8,49.9,59.7,49,60.9z M52.4,51.1c-0.1,1.9-0.4,3.4-2.3,4c-0.8,0-4.6-0.3-8-0.3
	c-2.3,0-3.9,0.1-4.9,0.3c-0.2,0-0.3,0.1-0.4,0.1c-0.5-4.5,2.2-5.3,2.6-5.3c5.5-0.2,11.8,0.1,13.1,0.6C52.4,50.8,52.4,50.9,52.4,51.1
	z M54.5,45.9c-0.2,1.2-2,2.5-2.9,2.9c-3.2-0.6-9-0.5-12-0.4c-0.4-0.4-1.1-1.2-1.1-2c0-0.5,0.4-1,1-1.4h14.8
	C54.5,45.3,54.5,45.6,54.5,45.9z M82.7,41.9c0,0.9-0.7,1.7-1.7,1.7H38.4c-0.9,0-1.7-0.7-1.7-1.7v-9.6c4.8-1.2,11.1-6.2,13.4-9.7
	c0.6-0.9,0.4-1.6,0.2-1.9c-1-1.7-5.7-1.8-13.6-1.1v-5.5c0-0.9,0.7-1.7,1.7-1.7H81c0.9,0,1.7,0.7,1.7,1.7V41.9z M84.2,31.7v-6.5
	l1.1,4.6C85.5,30.6,85,31.5,84.2,31.7z"/>
<polygon class="st0" points="71.6,21.8 66.7,17.8 61.9,21.8 57.4,18.2 56.5,19.3 61.9,23.7 66.7,19.7 71.6,23.7 77,19.3 76,18.2 "/>
<polygon class="st0" points="71.6,29 66.7,25 61.9,29 57.4,25.4 56.5,26.6 61.9,31 66.7,27 71.6,31 77,26.6 76,25.4 "/>
<polygon class="st0" points="71.6,36.3 66.7,32.3 61.9,36.3 57.4,32.6 56.5,33.8 61.9,38.2 66.7,34.2 71.6,38.2 77,33.8 76,32.6 "/>
</svg>
