<?xml version="1.0" encoding="utf-8"?>
<!-- Generator: Adobe Illustrator 26.0.1, SVG Export Plug-In . SVG Version: 6.00 Build 0)  -->
<svg version="1.1" id="Layer_1" xmlns:osb="http://www.openswatchbook.org/uri/2009/osb"
	 xmlns="http://www.w3.org/2000/svg" xmlns:xlink="http://www.w3.org/1999/xlink" x="0px" y="0px" viewBox="0 0 53.8 53.8"
	 style="enable-background:new 0 0 53.8 53.8;" xml:space="preserve" fill="#5a49d5">
<path d="M23.8,0c0,0-0.1,0-0.1,0C10.2,1.7,0,13.2,0,26.8c0,0,0,0,0,0c0,14.9,12.1,27,27,27c0,0,0,0,0,0c13.6,0,25.1-10.2,26.8-23.7
	c0.1-0.8-0.5-1.6-1.3-1.7c-0.4,0-0.7,0-1,0.2c-3.1,2.1-6.7,3.2-10.5,3.2c-10.5,0-19-8.5-19-19c0-3.7,1.1-7.4,3.2-10.5
	c0.5-0.7,0.3-1.6-0.4-2.1C24.5,0.1,24.1,0,23.8,0z M21.3,3.6c-1.3,2.9-2.3,6-2.3,9.2c0,0,0,0,0,0c0,12.1,9.9,22,22,22c0,0,0,0,0,0
	c3.2,0,6.3-0.9,9.2-2.3c-2.6,10.6-12,18.3-23.2,18.3c-13.3,0-24-10.7-24-24v0C3,15.6,10.7,6.2,21.3,3.6z"/>
</svg>
