<?xml version="1.0" encoding="utf-8"?>
<!-- Generator: Adobe Illustrator 26.0.1, SVG Export Plug-In . SVG Version: 6.00 Build 0)  -->
<svg version="1.1" id="Layer_1" xmlns="http://www.w3.org/2000/svg" xmlns:xlink="http://www.w3.org/1999/xlink" x="0px" y="0px"
	 viewBox="0 0 95 95" style="enable-background:new 0 0 95 95;" xml:space="preserve">
<style type="text/css">
	.st0{fill:white;}
</style>
<path class="st0" d="M50.8,3.2v68l27.9-27.9c1.2-1.3,3.3-1.3,4.6-0.1c1.3,1.2,1.3,3.3,0.1,4.6c0,0-0.1,0.1-0.1,0.1L55,76.3
	c-4.1,4.1-10.8,4.1-14.9,0c0,0,0,0,0,0L11.8,48c-1.3-1.3-1.3-3.3,0-4.6c1.3-1.3,3.3-1.3,4.6,0l28,28V3.2c0-1.8,1.5-3.2,3.2-3.2
	S50.8,1.5,50.8,3.2L50.8,3.2z M95,73.6c0-1.8-1.5-3.2-3.2-3.2s-3.2,1.5-3.2,3.2v10.8c0,2.2-1.8,4.1-4.1,4.1H10.6
	c-2.2,0-4.1-1.8-4.1-4c0,0,0,0,0,0V73.6c0-1.8-1.5-3.2-3.2-3.2S0,71.8,0,73.6v10.8C0,90.3,4.8,95,10.6,95h73.8
	C90.2,95,95,90.3,95,84.4V73.6z"/>
</svg>
