<?xml version="1.0" encoding="utf-8"?>
<!-- Generator: Adobe Illustrator 26.0.1, SVG Export Plug-In . SVG Version: 6.00 Build 0)  -->
<svg version="1.1" id="Layer_1" xmlns="http://www.w3.org/2000/svg" xmlns:xlink="http://www.w3.org/1999/xlink" x="0px" y="0px"
	 viewBox="0 0 48 48" style="enable-background:new 0 0 48 48;" xml:space="preserve" fill="#5a49d5">
<g>
	<g>
		<path d="M45,48H3c-1.7,0-3-1.3-3-3V14h48v31C48,46.7,46.7,48,45,48z M2,16v29c0,0.6,0.4,1,1,1h42c0.6,0,1-0.4,1-1V16H2z"/>
	</g>
	<g>
		<rect x="26" y="4" width="10" height="2"/>
	</g>
	<g>
		<rect x="12" y="4" width="10" height="2"/>
	</g>
	<g>
		<path d="M48,16H0V7c0-1.7,1.3-3,3-3h4v2H3C2.4,6,2,6.4,2,7v7h44V7c0-0.6-0.4-1-1-1h-5V4h5c1.7,0,3,1.3,3,3V16z"/>
	</g>
	<g>
		<path d="M10,11c-1.7,0-3-1.3-3-3V3c0-1.7,1.3-3,3-3s3,1.3,3,3v5C13,9.7,11.7,11,10,11z M10,2C9.4,2,9,2.4,9,3v5c0,0.6,0.4,1,1,1
			s1-0.4,1-1V3C11,2.4,10.6,2,10,2z"/>
	</g>
	<g>
		<path d="M24,11c-1.7,0-3-1.3-3-3V3c0-1.7,1.3-3,3-3s3,1.3,3,3v5C27,9.7,25.7,11,24,11z M24,2c-0.6,0-1,0.4-1,1v5c0,0.6,0.4,1,1,1
			s1-0.4,1-1V3C25,2.4,24.6,2,24,2z"/>
	</g>
	<g>
		<path d="M38,11c-1.7,0-3-1.3-3-3V3c0-1.7,1.3-3,3-3s3,1.3,3,3v5C41,9.7,39.7,11,38,11z M38,2c-0.6,0-1,0.4-1,1v5c0,0.6,0.4,1,1,1
			s1-0.4,1-1V3C39,2.4,38.6,2,38,2z"/>
	</g>
	<g>
		<path d="M40.5,25h-3c-0.8,0-1.5-0.7-1.5-1.5v-3c0-0.8,0.7-1.5,1.5-1.5h3c0.8,0,1.5,0.7,1.5,1.5v3C42,24.3,41.3,25,40.5,25z M38,23
			h2v-2h-2V23z"/>
	</g>
	<g>
		<path d="M30.5,25h-3c-0.8,0-1.5-0.7-1.5-1.5v-3c0-0.8,0.7-1.5,1.5-1.5h3c0.8,0,1.5,0.7,1.5,1.5v3C32,24.3,31.3,25,30.5,25z M28,23
			h2v-2h-2V23z"/>
	</g>
	<g>
		<path d="M20.5,25h-3c-0.8,0-1.5-0.7-1.5-1.5v-3c0-0.8,0.7-1.5,1.5-1.5h3c0.8,0,1.5,0.7,1.5,1.5v3C22,24.3,21.3,25,20.5,25z M18,23
			h2v-2h-2V23z"/>
	</g>
	<g>
		<path d="M10.5,34h-3C6.7,34,6,33.3,6,32.5v-3C6,28.7,6.7,28,7.5,28h3c0.8,0,1.5,0.7,1.5,1.5v3C12,33.3,11.3,34,10.5,34z M8,32h2
			v-2H8V32z"/>
	</g>
	<g>
		<path d="M40.5,34h-3c-0.8,0-1.5-0.7-1.5-1.5v-3c0-0.8,0.7-1.5,1.5-1.5h3c0.8,0,1.5,0.7,1.5,1.5v3C42,33.3,41.3,34,40.5,34z M38,32
			h2v-2h-2V32z"/>
	</g>
	<g>
		<path d="M30.5,34h-3c-0.8,0-1.5-0.7-1.5-1.5v-3c0-0.8,0.7-1.5,1.5-1.5h3c0.8,0,1.5,0.7,1.5,1.5v3C32,33.3,31.3,34,30.5,34z M28,32
			h2v-2h-2V32z"/>
	</g>
	<g>
		<path d="M20.5,34h-3c-0.8,0-1.5-0.7-1.5-1.5v-3c0-0.8,0.7-1.5,1.5-1.5h3c0.8,0,1.5,0.7,1.5,1.5v3C22,33.3,21.3,34,20.5,34z M18,32
			h2v-2h-2V32z"/>
	</g>
	<g>
		<path d="M10.5,43h-3C6.7,43,6,42.3,6,41.5v-3C6,37.7,6.7,37,7.5,37h3c0.8,0,1.5,0.7,1.5,1.5v3C12,42.3,11.3,43,10.5,43z M8,41h2
			v-2H8V41z"/>
	</g>
	<g>
		<path d="M40.5,43h-3c-0.8,0-1.5-0.7-1.5-1.5v-3c0-0.8,0.7-1.5,1.5-1.5h3c0.8,0,1.5,0.7,1.5,1.5v3C42,42.3,41.3,43,40.5,43z M38,41
			h2v-2h-2V41z"/>
	</g>
	<g>
		<path d="M30.5,43h-3c-0.8,0-1.5-0.7-1.5-1.5v-3c0-0.8,0.7-1.5,1.5-1.5h3c0.8,0,1.5,0.7,1.5,1.5v3C32,42.3,31.3,43,30.5,43z M28,41
			h2v-2h-2V41z"/>
	</g>
	<g>
		<path d="M20.5,43h-3c-0.8,0-1.5-0.7-1.5-1.5v-3c0-0.8,0.7-1.5,1.5-1.5h3c0.8,0,1.5,0.7,1.5,1.5v3C22,42.3,21.3,43,20.5,43z M18,41
			h2v-2h-2V41z"/>
	</g>
</g>
</svg>
