<?xml version="1.0" encoding="utf-8"?>
<!-- Generator: Adobe Illustrator 26.0.1, SVG Export Plug-In . SVG Version: 6.00 Build 0)  -->
<svg version="1.1" id="Layer_1" xmlns="http://www.w3.org/2000/svg" xmlns:xlink="http://www.w3.org/1999/xlink" x="0px" y="0px"
	 viewBox="0 0 19 19" style="enable-background:new 0 0 19 19;" xml:space="preserve" fill="#5a49d5">
<desc>Created with Sketch.</desc>
<g>
	<path d="M1,5v11.5C1,17.3,1.7,18,2.5,18h14c0.8,0,1.5-0.7,1.5-1.5V5H1z M1,4h17V2.5C18,1.7,17.3,1,16.5,1h-14C1.7,1,1,1.7,1,2.5V4z
		 M2.5,19C1.1,19,0,17.9,0,16.5v-14C0,1.1,1.1,0,2.5,0h14C17.9,0,19,1.1,19,2.5v14c0,1.4-1.1,2.5-2.5,2.5H2.5z M16.5,2
		C16.8,2,17,2.2,17,2.5S16.8,3,16.5,3h-1C15.2,3,15,2.8,15,2.5S15.2,2,15.5,2H16.5z M3.5,2C3.8,2,4,2.2,4,2.5S3.8,3,3.5,3h-1
		C2.2,3,2,2.8,2,2.5S2.2,2,2.5,2H3.5z M6.5,2C6.8,2,7,2.2,7,2.5S6.8,3,6.5,3h-1C5.2,3,5,2.8,5,2.5S5.2,2,5.5,2H6.5z"/>
</g>
</svg>
