<?xml version="1.0" encoding="utf-8"?>
<!-- Generator: Adobe Illustrator 26.0.1, SVG Export Plug-In . SVG Version: 6.00 Build 0)  -->
<svg version="1.1" id="Layer_1" xmlns="http://www.w3.org/2000/svg" xmlns:xlink="http://www.w3.org/1999/xlink" x="0px" y="0px"
	 viewBox="0 0 85.3 84.5" style="enable-background:new 0 0 85.3 84.5;" xml:space="preserve" fill="#5A49D5">
<path d="M80.8,53.3V4.2h2.4c1.2,0,2.1-1,2.1-2.1S84.3,0,83.2,0H2.1C0.9,0,0,1,0,2.1s1,2.1,2.1,2.1h2.8v49.1c0,2.7,2.2,5,5,5h66
	C78.6,58.2,80.8,56,80.8,53.3z M9.1,53.3V4.2h67.4v49.1c0,0.4-0.3,0.7-0.7,0.7h-66C9.5,54,9.1,53.7,9.1,53.3z M41.6,82.4V75
	l-8.9,8.9c-0.4,0.4-1,0.6-1.5,0.6s-1.1-0.2-1.5-0.6c-0.8-0.8-0.8-2.2,0-3L41.6,69v-3.9h-5.8c-1.2,0-2.1-1-2.1-2.1
	c0-1.2,1-2.1,2.1-2.1h15.6c1.2,0,2.1,1,2.1,2.1c0,1.2-1,2.1-2.1,2.1h-5.5V69l11.8,11.8c0.8,0.8,0.8,2.2,0,3c-0.4,0.4-1,0.6-1.5,0.6
	s-1.1-0.2-1.5-0.6l-8.9-8.9v7.4c0,1.2-1,2.1-2.1,2.1C42.5,84.5,41.6,83.5,41.6,82.4z M74.5,28.4c0.8,0.8,0.8,2.2,0,3l-4,4
	c-0.4,0.4-1,0.6-1.5,0.6s-1.1-0.2-1.5-0.6c-0.8-0.8-0.8-2.2,0-3l2.5-2.5l-2.5-2.5c-0.8-0.8-0.8-2.2,0-3s2.2-0.8,3,0L74.5,28.4z
	 M18.6,27.4l-2.5,2.5l2.5,2.5c0.8,0.8,0.8,2.2,0,3c-0.4,0.4-1,0.6-1.5,0.6s-1.1-0.2-1.5-0.6l-4-4c-0.8-0.8-0.8-2.2,0-3l4-4
	c0.8-0.8,2.2-0.8,3,0C19.4,25.2,19.4,26.5,18.6,27.4z M62.4,10.4H23c-1.2,0-2.1,1-2.1,2.1v33.1c0,1.2,1,2.1,2.1,2.1h39.5
	c1.2,0,2.1-1,2.1-2.1V12.5C64.6,11.4,63.6,10.4,62.4,10.4z M60.3,14.7v15.2l-7.5-7.5c-0.8-0.8-2.2-0.8-3,0L37.5,34.7l-3.6-3.6
	c-0.8-0.8-2.2-0.8-3,0l-5.8,5.8V14.7H60.3z M25.1,43.5v-0.7l7.3-7.3l3.6,3.6c0.8,0.8,2.2,0.8,3,0l12.4-12.4l9,9v7.7L25.1,43.5
	L25.1,43.5z M34.7,28.7c3.1,0,5.7-2.5,5.7-5.7c0-3.1-2.5-5.7-5.7-5.7c-3.1,0-5.7,2.5-5.7,5.7C29,26.1,31.6,28.7,34.7,28.7z
	 M34.7,21.5c0.8,0,1.4,0.6,1.4,1.4s-0.6,1.4-1.4,1.4c-0.8,0-1.4-0.6-1.4-1.4C33.3,22.2,33.9,21.5,34.7,21.5z"/>
</svg>
