<?xml version="1.0" encoding="utf-8"?>
<!-- Generator: Adobe Illustrator 26.0.1, SVG Export Plug-In . SVG Version: 6.00 Build 0)  -->
<svg version="1.1" id="Layer_1" xmlns="http://www.w3.org/2000/svg" xmlns:xlink="http://www.w3.org/1999/xlink" x="0px" y="0px"
	 viewBox="0 0 24.7 28" style="enable-background:new 0 0 24.7 28;" xml:space="preserve">
<style type="text/css">
	.st0{fill-rule:evenodd;clip-rule:evenodd;}
</style>
<g>
	<path class="st0" d="M12.3,3.3C5.5,3.3,0,8.8,0,15.7S5.5,28,12.3,28s12.3-5.5,12.3-12.3c0,0,0,0,0,0C24.7,8.8,19.2,3.3,12.3,3.3z
		 M12.3,26.4c-6,0-10.8-4.8-10.8-10.8S6.4,4.9,12.3,4.9c6,0,10.8,4.8,10.8,10.8C23.1,21.6,18.3,26.4,12.3,26.4L12.3,26.4z"/>
	<path class="st0" d="M12.3,9.1c-0.4,0-0.8,0.3-0.8,0.8v5h-5c-0.4,0-0.8,0.3-0.8,0.8c0,0.4,0.3,0.8,0.8,0.8h5.8
		c0.4,0,0.8-0.3,0.8-0.8v0V9.9C13.1,9.4,12.8,9.1,12.3,9.1z"/>
	<path class="st0" d="M9,1.6h6.6c0.4,0,0.8-0.3,0.8-0.8S16.1,0,15.7,0H9C8.6,0,8.3,0.3,8.3,0.8S8.6,1.6,9,1.6z"/>
</g>
</svg>
